<?xml version="1.0" standalone="no"?>
<!DOCTYPE svg PUBLIC "-//W3C//DTD SVG 1.0//EN" "http://www.w3.org/TR/2001/REC-SVG-20010904/DTD/svg10.dtd">
<svg xmlns="http://www.w3.org/2000/svg" xmlns:xlink="http://www.w3.org/1999/xlink" id="body_1" width="56" height="42">

<g transform="matrix(0.3218391 0 0 0.3206107 0 0)">
	<g transform="matrix(0.44430432 0 0 0.44430432 21.5 -0)">
		<g>
            <path d="M251.663 43.225C 223.836 15.414 186.818 0.064 147.431 0C 147.351 0 147.274 0 147.195 0C 113.08301 0 79.853004 11.912 53.60501 33.555C 51.04801 35.663002 50.685013 39.445 52.79201 42.001C 54.900013 44.558 58.68201 44.920998 61.23801 42.814C 85.344 22.938 115.86 12 147.195 12C 147.266 12 147.341 12 147.412 12C 222.089 12.12 282.84302 72.869995 282.84302 147.421C 282.84302 222.09201 222.09302 282.842 147.42201 282.842C 72.833 282.843 12.083 222.09 12 147.415C 11.982 131.62299 14.652 116.15799 19.935 101.45C 21.055 98.33099 19.435 94.895 16.316 93.774994C 13.2 92.65499 9.761 94.274994 8.641 97.394C 2.888 113.411 -0.019 130.245 0 147.428C 0.09 228.713 66.223 294.843 147.421 294.843C 228.71 294.843 294.842 228.70999 294.842 147.42198C 294.843 108.057 279.508 71.052 251.663 43.225z" stroke="none" fill="#000000" fill-rule="nonzero" />
            <path d="M190.804 46.997C 177.084 41.062 162.488 38.053 147.421 38.053C 87.115005 38.053 38.05301 87.116 38.05301 147.42099C 38.05301 207.72598 87.116 256.79 147.421 256.79C 207.72601 256.79 256.79 207.727 256.79 147.421C 256.79 144.108 254.10301 141.421 250.79001 141.421L250.79001 141.421L228.84702 141.421C 225.53401 141.421 222.84702 144.108 222.84702 147.421C 222.84702 150.73401 225.53401 153.421 228.84702 153.421L228.84702 153.421L244.60002 153.421C 241.61102 202.34 202.34203 241.61002 153.42203 244.599L153.42203 244.599L153.42203 228.846C 153.42203 225.53299 150.73503 222.846 147.42203 222.846C 144.10902 222.846 141.42203 225.53299 141.42203 228.846L141.42203 228.846L141.42203 244.599C 92.50303 241.61 53.233025 202.341 50.244026 153.42099L50.244026 153.42099L65.997025 153.42099C 69.31003 153.42099 71.997025 150.734 71.997025 147.42099C 71.997025 144.10799 69.31003 141.42099 65.997025 141.42099L65.997025 141.42099L50.244 141.42099C 53.232998 92.50199 92.502 53.231987 141.422 50.24299L141.422 50.24299L141.422 65.99599C 141.422 69.30899 144.109 71.99599 147.422 71.99599C 150.735 71.99599 153.422 69.30899 153.422 65.99599L153.422 65.99599L153.422 50.241C 164.715 50.922 175.663 53.522 186.041 58.011C 189.082 59.328003 192.614 57.928 193.93 54.886C 195.24599 51.844 193.845 48.313 190.804 46.997z" stroke="none" fill="#000000" fill-rule="nonzero" />
            <path d="M190.003 97.098L136.90201 118.606C 132.76501 120.12 128.97101 122.526 125.76301 125.734C 123.01501 128.482 120.906006 131.627 119.420006 134.98401C 119.270004 135.23901 119.131004 135.503 119.01601 135.785L119.01601 135.785L97.02701 190.074C 96.12201 192.307 96.64101 194.865 98.34501 196.569C 99.49201 197.717 101.02701 198.327 102.58901 198.327C 103.346016 198.327 104.110016 198.183 104.83901 197.88899L104.83901 197.88899L159.13301 175.90599C 159.395 175.79999 159.641 175.672 159.87901 175.534C 163.30202 174.021 166.45401 171.879 169.17902 169.153C 172.08302 166.249 174.27702 162.901 175.77202 159.327C 175.79002 159.28499 175.81502 159.249 175.83202 159.207L175.83202 159.207L197.81502 104.913C 198.71902 102.68 198.20001 100.122 196.49602 98.418C 194.794 96.712 192.236 96.193 190.003 97.098zM147.471 128.741C 152.467 128.741 157.163 130.686 160.69499 134.219C 167.987 141.51099 167.987 153.375 160.69499 160.66699C 157.163 164.19899 152.46599 166.14499 147.471 166.14499C 142.476 166.14499 137.78 164.19998 134.247 160.66699C 126.954994 153.375 126.954994 141.51099 134.247 134.219C 135.967 132.499 137.967 131.163 140.14 130.236C 140.166 130.226 140.192 130.219 140.218 130.209L140.218 130.209L140.65001 130.034C 142.796 129.193 145.098 128.741 147.471 128.741zM120.965 162.935C 122.26299 165.15599 123.85999 167.249 125.76199 169.151C 127.645996 171.035 129.735 172.639 131.97499 173.953L131.97499 173.953L113.46799 181.447L120.965 162.935zM173.946 131.892C 172.65399 129.692 171.067 127.618996 169.181 125.733C 167.315 123.867004 165.249 122.275 163.034 120.968L163.034 120.968L181.377 113.538L173.946 131.892z" stroke="none" fill="#000000" fill-rule="nonzero" />
		</g>
		<g>
		</g>
		<g>
		</g>
		<g>
		</g>
		<g>
		</g>
		<g>
		</g>
		<g>
		</g>
		<g>
		</g>
		<g>
		</g>
		<g>
		</g>
		<g>
		</g>
		<g>
		</g>
		<g>
		</g>
		<g>
		</g>
		<g>
		</g>
		<g>
		</g>
	</g>
</g>
</svg>