<?xml version="1.0" standalone="no"?>
<!DOCTYPE svg PUBLIC "-//W3C//DTD SVG 1.0//EN" "http://www.w3.org/TR/2001/REC-SVG-20010904/DTD/svg10.dtd">
<svg xmlns="http://www.w3.org/2000/svg" xmlns:xlink="http://www.w3.org/1999/xlink" id="body_1" width="25" height="25">

<g transform="matrix(0.390625 0 0 0.390625 0 0)">
    <path d="M63 13C 63 16.31371 61.82843 19.142136 59.485283 21.485281C 57.142136 23.828428 54.31371 25.000002 51 25C 47.686295 25.000002 44.857864 23.828428 42.514717 21.485281C 40.171574 19.142136 39 16.31371 39 13C 39 9.686292 40.171574 6.8578644 42.514717 4.514719C 44.857864 2.1715732 47.686295 1 51 1C 54.31371 1 57.142136 2.1715732 59.485283 4.514719C 61.82843 6.8578644 63 9.686292 63 13C 63 13.139641 62.997566 13.27924 62.99269 13.418794" stroke="#000000" stroke-width="2" fill="none" />
    <path d="M21 42C 21 44.761425 20.02369 47.118446 18.071068 49.071068C 16.118446 51.02369 13.761424 52 11 52C 8.238577 52 5.881554 51.02369 3.9289322 49.071068C 1.9763107 47.118446 1 44.761425 1 42C 1 39.23858 1.9763107 36.881554 3.9289322 34.928932C 5.881554 32.97631 8.238577 32 11 32C 13.761424 32 16.118446 32.97631 18.071068 34.928932C 20.02369 36.881554 21 39.23858 21 42C 21 42.116367 20.99797 42.2327 20.993908 42.348995" stroke="#000000" stroke-width="2" fill="none" />
    <path d="M56 55C 56.000004 57.209145 55.218956 59.09476 53.656853 60.656853C 52.094757 62.218952 50.20914 63 48 63C 45.790863 63 43.905243 62.218952 42.343147 60.656853C 40.78105 59.09476 40 57.209145 40 55C 40 52.790863 40.78105 50.905243 42.343147 49.343147C 43.905243 47.78105 45.790863 47 48 47C 50.20914 47 52.094757 47.78105 53.656853 49.343147C 55.218956 50.905243 56.000004 52.790863 56 55C 56.000004 55.093094 55.99838 55.18616 55.995125 55.279198" stroke="#000000" stroke-width="2" fill="none" />
    <path d="M40 54L20 46" stroke="#000000" stroke-width="2" fill="none" />
    <path d="M19 35L41 21" stroke="#000000" stroke-width="2" fill="none" />
</g>
</svg>